# xmcd
#
# Track frame offsets:
#	150
#	11012
#	23412
#	35577
#	47867
#	60337
#	72410
#	84642
#	94207
#	104957
#	117860
#	128455
#	138257
#	148290
#	158535
#	169492
#	180487
#	192877
#	203062
#	216517
#	228637
#	239207
#	251015
#	262545
#	273112
#	283187
#	293192
#
# Disc length: 4100 seconds
#
# Revision: 1
# Processed by: cddbd v1.4PL0 Copyright (c) Steve Scherf et al.
# Submitted via: MusicWizard 6.0.2
#
DISCID=9610021b
DTITLE=Dean Martin - Everybody Loves Somebody   Vol. 5
DYEAR=1900
DGENRE=Vocal
TTITLE0=King Of The Road
TTITLE1=Take These Chains From My Heart
TTITLE2=Walk On By
TTITLE3=Bumming Around
TTITLE4=Red Roses For A Blue Lady
TTITLE5=Love, Love, Love
TTITLE6=Houston
TTITLE7=Little Lovely One
TTITLE8=I Will
TTITLE9=Down Home
TTITLE10=Old Yellow Line
TTITLE11=The First Thing Ev'ry Morning (And The Last Thing Ev'ry Night)
TTITLE12=Everybody But Me
TTITLE13=You're The Reason I'm In Love
TTITLE14=Hammer And Nails
TTITLE15=Snap Your Fingers
TTITLE16=Detour
TTITLE17=Somewhere There's A Someone
TTITLE18=That Old Clock On The Wall
TTITLE19=South Of The Border
TTITLE20=Empty Saddles
TTITLE21=Red Sails In The Sunset
TTITLE22=On The Sunny Side Of The Street
TTITLE23=The Glory Of Love
TTITLE24=Side By Side
TTITLE25=If I Knew Susie
TTITLE26=The Last Rond-Up
EXTD=
EXTT0=
EXTT1=
EXTT2=
EXTT3=
EXTT4=
EXTT5=
EXTT6=
EXTT7=
EXTT8=
EXTT9=
EXTT10=
EXTT11=
EXTT12=
EXTT13=
EXTT14=
EXTT15=
EXTT16=
EXTT17=
EXTT18=
EXTT19=
EXTT20=
EXTT21=
EXTT22=
EXTT23=
EXTT24=
EXTT25=
EXTT26=
PLAYORDER=
